<svg xmlns="http://www.w3.org/2000/svg" xmlns:xlink="http://www.w3.org/1999/xlink" version="1.1" x="0px" y="0px" viewBox="0 0 100 125" style="enable-background:new 0 0 100 100;" xml:space="preserve"><title>Artboard 9</title><path d="M10.2,62.1c-0.9-1.5-1-3.4-0.3-5l0.4-0.9l2.9-6.5l1.4-3.3l0.7-1.6l0.4-0.8c0.1-0.2,0.2-0.5,0.3-0.7c0.5-1.4,0.8-2.8,0.9-4.3  v-0.8v-1c0.2-5.2,1.4-10.2,3.6-14.9C29.1,3.9,51.2-4.1,69.6,4.7c5.5,2.6,10.3,6.5,13.9,11.4c5,6.6,7.4,14.7,6.9,22.9  c-0.2,3.7-1.1,7.4-2.6,10.8c-1.3,3.1-3.2,6-5.5,8.5c-0.6,0.6-1.2,1.2-1.9,1.7l-0.4,0.3l-0.4,0.3l-0.8,0.7c-1,0.8-1.5,1-1-0.4  c0.2-0.5,0.5-1.1,0.9-1.5c0.2-0.4,0.4-0.9,0.7-1.3s0.5-1,0.8-1.5c0.2-0.5,0.5-0.9,0.8-1.3c5.8-8.9,6.6-20.2,2.2-29.9  c-0.3-0.6-0.5-1.2-0.9-1.8c-0.3-0.6-0.6-1.2-1-1.7c-4.9-7.9-12.9-13.2-22-14.7c-5.2-0.8-10.5-0.4-15.4,1.3l-1.8,0.7L40.3,10  l-0.9,0.4c-0.3,0.1-0.6,0.3-0.8,0.5l-1.7,1c-2.2,1.4-4.2,3.1-6,5c-1.8,1.9-3.4,4-4.7,6.3c-1.3,2.3-2.3,4.7-3,7.3  c-0.7,2.6-1.1,5.2-1.2,7.8c0,1.6-0.3,3.2-0.7,4.7c-0.2,0.8-0.5,1.5-0.8,2.3c-0.3,0.8-0.6,1.4-1,2L14.8,58l-0.3,0.7L14.4,59  c0,0,0,0.1,0,0.1c0,0.1,0,0.3,0,0.4c0.1,0.3,0.3,0.5,0.6,0.6l5.5,1.8c0.9,0.3,1.5,1.1,1.5,2l0,0L22,73v2.3V77c0,0.2,0,0.3,0,0.4  c0.1,1,0.5,1.9,1.2,2.6c0.7,0.6,1.6,1,2.5,1h4.5l9.1-0.1c1.1,0,2.1,0.7,2.4,1.8l0,0l2.2,7.5l0.5,1.9l0.1,0.4c0,0,0,0.1,0,0.1  c0,0.1,0.1,0.2,0.1,0.2c0.2,0.3,0.6,0.4,1,0.3c7.4-2.1,15-4.2,22.6-6.3l11.3-3.1l1.4-0.4l0.7-0.2l0.3-0.1c0.3-0.2,0.6-0.5,0.7-0.8  c0-0.2,0-0.4,0-0.6v-0.2l-0.1-0.4l-0.2-0.7l-0.8-3c-1-3.5-1.7-7.1-2.2-10.8c-0.3-2.6-0.2-4.1,0.3-4.2s1.5,1.5,2.7,4  c1.4,3.2,2.6,6.4,3.6,9.7l1.1,3.5l0.1,0.4c0.1,0.3,0.1,0.5,0.2,0.8c0.5,3-1.3,6-4.2,6.9l-2,0.6l-3.8,1.1l-15,4.5l-15.1,4.4  c-0.1,0-0.5,0.1-0.8,0.2c-0.3,0.1-0.6,0.1-0.9,0.1c-0.6,0-1.2,0-1.8-0.2c-1.8-0.5-3.4-1.7-4.2-3.4c-0.2-0.5-0.4-1-0.5-1.5l-0.5-1.9  L37,86.5l-11-0.1c-1.6,0-3.2-0.4-4.7-1.2c-2.9-1.7-4.7-4.8-4.6-8.1v-3.3l0.1-7.8l-2.2-0.8l-0.9-0.3l-0.4-0.1  c-0.3-0.1-0.5-0.2-0.8-0.3C11.5,63.9,10.7,63.1,10.2,62.1z M58.3,41.6c5.1-2.7,7.4-8.9,5.1-14.2c-0.5-2.5-1.9-4.7-4-6.2  c-1.1-0.8-2.3-1.3-3.6-1.7c-1.3-0.3-2.7-0.4-4-0.3c-2.7,0.3-5.2,1.5-7.1,3.4c-1.9,1.9-3.2,4.3-3.6,7c0,0.6,0.3,1.1,0.8,1.5  c0.7,0.4,1.4-0.1,1.9-0.8c1.5-1.9,3.3-3.5,5.3-4.7c2.1-1.3,4.8-1.2,6.9,0.1c2,1.2,3.2,3.3,3.5,5.6c0,0.6-0.2,1.1-0.3,1.7  c-0.3,0.8-0.8,1.6-1.4,2.2c-0.3,0.3-0.6,0.6-1,0.8c-0.2,0.1-0.4,0.2-0.5,0.3l-0.8,0.5c-1.6,0.9-3,2.3-3.8,4  c-0.4,0.8-0.7,1.7-0.9,2.6c-0.1,0.4-0.1,0.9-0.1,1.4c0,0.4,0,0.8,0.1,1.2c0.2,1.5,0.9,2.7,2.3,2.6c1.3-0.2,2.3-1.3,2.3-2.7  C55.3,44,56.5,42.4,58.3,41.6z M55.1,57.9c1.8-1.2,0.8-2.5,1.2-3.7c-0.3-0.2-0.6-0.2-1-0.3c-0.6-0.1-1.2,0-1.9,0.1  c-1.6,0.3-2.3,0.7-2.5,1.2c-0.5,1-1.2,2.1-0.7,3.1l-0.1,0.5c-0.3,0.8-0.2,1.7,0.3,2.3c0.2,0.2,0.9,0.5,2.3,0.5  c0.8,0.1,1.6,0,2.3-0.3c0.3-0.4,0.5-0.8,0.5-1.3c0-0.4-0.1-0.8-0.2-1.1L55.1,57.9z"/><text x="0" y="115" fill="#000000" font-size="5px" font-weight="bold" font-family="'Helvetica Neue', Helvetica, Arial-Unicode, Arial, Sans-serif">Created by Gregor Cresnar</text><text x="0" y="120" fill="#000000" font-size="5px" font-weight="bold" font-family="'Helvetica Neue', Helvetica, Arial-Unicode, Arial, Sans-serif">from the Noun Project</text></svg>